# xmcd
#
# Track frame offsets:
#	150
#	22720
#	39922
#	58227
#	75620
#	91765
#	111116
#	131051
#	145258
#	163544
#	178278
#	194660
#	211091
#	225180
#
# Disc length: 3183 seconds
#
# Revision: 1
# Processed by: cddbd v1.5.2PL0 Copyright (c) Steve Scherf et al.
# Submitted via: audiograbber 1.83.01
#
DISCID=b10c6d0e
DTITLE=Country Hits - SD161
DYEAR=2007
DGENRE=Karaoke
TTITLE0=Sugarland - Stay
TTITLE1=Atkins, Rodney - Cleaning This Gun (Come On In Boy)
TTITLE2=Wicks, Chuck - Stealing Cinderella
TTITLE3=Morgan, Craig - International Harvester
TTITLE4=Hill, Faith - Red Umbrella
TTITLE5=McBride, Martina - For These Times
TTITLE6=Jovi, Bon - Lost Highway
TTITLE7=Wilson, Gretchen - You Don't Have To Go Home
TTITLE8=Halfway To Hazard - Devil And The Cross
TTITLE9=Shepherd, Ashton - Takin' Off This Pain
TTITLE10=Brice, Lee - Happy Endings
TTITLE11=Parton, Dolly - Better Get To Livin'
TTITLE12=Krauss, Alison and Plant, Robert - Gone Gone Gone (Done Moved On)
TTITLE13=Jennings, Shooter - Walk Of Life
EXTD=
EXTT0=
EXTT1=
EXTT2=
EXTT3=
EXTT4=
EXTT5=
EXTT6=
EXTT7=
EXTT8=
EXTT9=
EXTT10=
EXTT11=
EXTT12=
EXTT13=
PLAYORDER=
